<?xml version="1.0" encoding="UTF-8"?>
<!DOCTYPE svg PUBLIC "-//W3C//DTD SVG 1.1//EN" "http://www.w3.org/Graphics/SVG/1.1/DTD/svg11.dtd">
<svg version="1.1" xmlns="http://www.w3.org/2000/svg" xmlns:xlink="http://www.w3.org/1999/xlink" x="0" y="0" width="200" height="150" viewBox="0, 0, 800, 600">
  <defs>
    <clipPath id="Clip_1">
      <path d="M54.082,29.565 L464.892,29.565 L464.892,440.435 L54.082,440.435 z"/>
    </clipPath>
  </defs>
  <g id="Layer_1">
    <g id="Sass_Logo_-_Seal_(Color)">
      <g clip-path="url(#Clip_1)">
        <path d="M259.457,29.565 C372.917,29.565 464.892,121.541 464.892,235.001 C464.892,348.46 372.917,440.435 259.457,440.435 C145.999,440.435 54.021,348.46 54.021,235.001 C54.021,121.541 145.999,29.565 259.457,29.565" fill="#BE5F8A"/>
      </g>
      <path d="M218.631,303.431 C221.62,314.487 221.292,324.798 218.204,334.134 C217.861,335.172 217.484,336.198 217.074,337.212 C216.663,338.224 216.219,339.225 215.743,340.212 C213.363,345.152 210.167,349.776 206.255,354.044 C194.318,367.066 177.641,371.991 170.491,367.841 C162.769,363.366 166.637,345.005 180.475,330.378 C195.363,314.638 216.785,304.52 216.785,304.52 L216.751,304.456 C217.368,304.124 217.995,303.781 218.631,303.431 z M388.32,117.493 C379.017,81.007 318.52,69.014 261.262,89.354 C227.187,101.462 190.298,120.462 163.773,145.271 C132.236,174.769 127.208,200.443 129.281,211.171 C136.592,249.025 188.46,273.768 209.781,292.125 L209.781,292.237 C203.495,295.332 157.478,318.62 146.708,342.427 C135.346,367.544 148.518,385.569 157.238,387.995 C184.257,395.512 211.982,381.991 226.883,359.766 C241.262,338.318 240.064,310.621 233.816,296.845 C242.436,294.57 252.484,293.552 265.255,295.044 C301.293,299.253 308.363,321.755 307.012,331.169 C305.66,340.587 298.102,345.766 295.574,347.328 C293.047,348.893 292.276,349.434 292.488,350.595 C292.794,352.285 293.965,352.223 296.12,351.858 C299.086,351.358 315.043,344.198 315.724,326.815 C316.594,304.745 295.444,280.056 257.995,280.702 C242.572,280.967 232.874,282.435 225.868,285.042 C225.35,284.452 224.824,283.865 224.279,283.284 C201.126,258.582 158.327,241.109 160.143,207.902 C160.803,195.831 164.999,164.042 242.382,125.483 C305.772,93.896 356.517,102.588 365.288,121.852 C377.815,149.372 338.167,200.525 272.336,207.902 C247.255,210.715 234.049,200.993 230.764,197.374 C227.305,193.562 226.79,193.391 225.499,194.105 C223.395,195.271 224.728,198.635 225.499,200.642 C227.464,205.757 235.529,214.827 249.281,219.34 C261.376,223.31 290.824,225.491 326.438,211.715 C366.323,196.286 397.469,153.368 388.32,117.493" fill="#FFFFFE"/>
    </g>
    <g id="Clojure_logo">
      <path d="M540.485,159.564 C427.216,159.564 335.056,251.725 335.056,364.998 C335.056,478.28 427.216,570.435 540.485,570.435 C653.758,570.435 745.919,478.28 745.919,364.998 C745.919,251.725 653.758,159.564 540.485,159.564" fill="#FFFFFF" id="path8"/>
      <path d="M532.973,368.692 C531.127,372.692 529.09,377.185 526.981,381.968 C519.527,398.858 511.271,419.411 508.255,432.578 C507.172,437.268 506.501,443.079 506.514,449.523 C506.514,452.072 506.65,454.75 506.867,457.479 C517.406,461.351 528.79,463.481 540.678,463.502 C551.5,463.481 561.897,461.693 571.628,458.458 C569.34,456.366 567.158,454.137 565.171,451.625 C551.978,434.803 544.618,410.148 532.973,368.692" fill="#91DC47" id="path10"/>
      <path d="M484.266,285.11 C459.07,302.867 442.583,332.154 442.52,365.344 C442.583,398.038 458.574,426.946 483.136,444.777 C489.161,419.681 504.264,396.701 526.911,350.64 C525.566,346.945 524.033,342.901 522.318,338.653 C516.044,322.915 506.989,304.638 498.908,296.361 C494.788,292.037 489.789,288.301 484.266,285.11" fill="#91DC47" id="path12"/>
      <path d="M626.181,477.93 C613.181,476.301 602.452,474.335 593.066,471.024 C577.28,478.863 559.502,483.291 540.678,483.291 C475.543,483.291 422.743,430.498 422.735,365.344 C422.735,329.992 438.309,298.301 462.948,276.688 C456.358,275.096 449.486,274.166 442.466,274.179 C407.86,274.505 371.33,293.657 356.122,345.379 C354.7,352.908 355.039,358.6 355.039,365.347 C355.039,467.879 438.16,551 540.683,551 C603.471,551 658.938,519.801 692.527,472.087 C674.359,476.614 656.888,478.779 641.927,478.826 C636.319,478.826 631.055,478.526 626.181,477.93" fill="#63B132" id="path14"/>
      <path d="M591.296,441.957 C592.442,442.526 595.04,443.453 598.656,444.479 C622.982,426.621 638.791,397.855 638.853,365.344 L638.844,365.344 C638.752,311.144 594.891,267.289 540.678,267.182 C529.902,267.203 519.551,268.981 509.858,272.192 C529.79,294.912 539.375,327.38 548.646,362.895 C548.651,362.911 548.659,362.924 548.663,362.937 C548.68,362.966 551.628,372.799 556.69,385.846 C561.717,398.875 568.878,415.004 576.688,426.759 C581.816,434.636 587.455,440.296 591.296,441.957" fill="#90B4FE" id="path16"/>
      <path d="M540.683,179.692 C478.501,179.692 423.497,210.303 389.806,257.239 C407.34,246.258 425.243,242.297 440.867,242.438 C462.447,242.501 479.413,249.192 487.553,253.769 C489.519,254.902 491.386,256.122 493.214,257.376 C507.738,250.978 523.788,247.401 540.678,247.401 C605.821,247.409 658.629,300.202 658.639,365.344 L658.629,365.344 C658.629,398.188 645.196,427.884 623.541,449.268 C628.856,449.863 634.525,450.234 640.314,450.205 C660.875,450.215 683.098,445.678 699.759,431.665 C710.623,422.514 719.724,409.114 724.772,389.023 C725.759,381.264 726.327,373.375 726.327,365.347 C726.327,262.821 643.214,179.692 540.683,179.692" fill="#5881D8" id="path18"/>
    </g>
  </g>
</svg>
