<svg xmlns="http://www.w3.org/2000/svg" xmlns:xlink="http://www.w3.org/1999/xlink" version="1.1" class="marks" width="708" height="519.8281829419036" viewBox="0 0 708 519.8281829419036"><rect width="708" height="519.8281829419036" fill="white"/><g fill="none" stroke-miterlimit="10" transform="translate(100,13)"><g class="mark-group role-frame root" role="graphics-object" aria-roledescription="group mark container"><g transform="translate(0,0)"><path class="background" aria-hidden="true" d="M0.5,0.5h600v370.82818294190355h-600Z" stroke="#ddd"/><g><g class="mark-group role-axis" aria-hidden="true"><g transform="translate(0.5,371.32818294190355)"><path class="background" aria-hidden="true" d="M0,0h0v0h0Z" pointer-events="none"/><g><g class="mark-rule role-axis-grid" pointer-events="none"><line transform="translate(18,-370.82818294190355)" x2="0" y2="370.82818294190355" stroke="#ddd" stroke-width="1" opacity="1"/><line transform="translate(68,-370.82818294190355)" x2="0" y2="370.82818294190355" stroke="#ddd" stroke-width="1" opacity="1"/><line transform="translate(123,-370.82818294190355)" x2="0" y2="370.82818294190355" stroke="#ddd" stroke-width="1" opacity="1"/><line transform="translate(175,-370.82818294190355)" x2="0" y2="370.82818294190355" stroke="#ddd" stroke-width="1" opacity="1"/><line transform="translate(230,-370.82818294190355)" x2="0" y2="370.82818294190355" stroke="#ddd" stroke-width="1" opacity="1"/><line transform="translate(282,-370.82818294190355)" x2="0" y2="370.82818294190355" stroke="#ddd" stroke-width="1" opacity="1"/><line transform="translate(337,-370.82818294190355)" x2="0" y2="370.82818294190355" stroke="#ddd" stroke-width="1" opacity="1"/><line transform="translate(391,-370.82818294190355)" x2="0" y2="370.82818294190355" stroke="#ddd" stroke-width="1" opacity="1"/><line transform="translate(444,-370.82818294190355)" x2="0" y2="370.82818294190355" stroke="#ddd" stroke-width="1" opacity="1"/><line transform="translate(498,-370.82818294190355)" x2="0" y2="370.82818294190355" stroke="#ddd" stroke-width="1" opacity="1"/><line transform="translate(551,-370.82818294190355)" x2="0" y2="370.82818294190355" stroke="#ddd" stroke-width="1" opacity="1"/></g></g><path class="foreground" aria-hidden="true" d="" pointer-events="none" display="none"/></g></g><g class="mark-group role-axis" aria-hidden="true"><g transform="translate(0.5,0.5)"><path class="background" aria-hidden="true" d="M0,0h0v0h0Z" pointer-events="none"/><g><g class="mark-rule role-axis-grid" pointer-events="none"><line transform="translate(0,371)" x2="600" y2="0" stroke="#ddd" stroke-width="1" opacity="1"/><line transform="translate(0,342)" x2="600" y2="0" stroke="#ddd" stroke-width="1" opacity="1"/><line transform="translate(0,314)" x2="600" y2="0" stroke="#ddd" stroke-width="1" opacity="1"/><line transform="translate(0,285)" x2="600" y2="0" stroke="#ddd" stroke-width="1" opacity="1"/><line transform="translate(0,257)" x2="600" y2="0" stroke="#ddd" stroke-width="1" opacity="1"/><line transform="translate(0,228)" x2="600" y2="0" stroke="#ddd" stroke-width="1" opacity="1"/><line transform="translate(0,200)" x2="600" y2="0" stroke="#ddd" stroke-width="1" opacity="1"/><line transform="translate(0,171)" x2="600" y2="0" stroke="#ddd" stroke-width="1" opacity="1"/><line transform="translate(0,143)" x2="600" y2="0" stroke="#ddd" stroke-width="1" opacity="1"/><line transform="translate(0,114)" x2="600" y2="0" stroke="#ddd" stroke-width="1" opacity="1"/><line transform="translate(0,86)" x2="600" y2="0" stroke="#ddd" stroke-width="1" opacity="1"/><line transform="translate(0,57)" x2="600" y2="0" stroke="#ddd" stroke-width="1" opacity="1"/><line transform="translate(0,29)" x2="600" y2="0" stroke="#ddd" stroke-width="1" opacity="1"/><line transform="translate(0,0)" x2="600" y2="0" stroke="#ddd" stroke-width="1" opacity="1"/></g></g><path class="foreground" aria-hidden="true" d="" pointer-events="none" display="none"/></g></g><g class="mark-group role-axis" role="graphics-symbol" aria-roledescription="axis" aria-label="X-axis titled 'Date' for a time scale with values from Wednesday, 22 January 2020, 12:00:00 AM to Tuesday, 29 December 2020, 12:00:00 AM"><g transform="translate(0.5,371.32818294190355)"><path class="background" aria-hidden="true" d="M0,0h0v0h0Z" pointer-events="none"/><g><g class="mark-rule role-axis-tick" pointer-events="none"><line transform="translate(18,0)" x2="0" y2="5" stroke="#888" stroke-width="1" opacity="1"/><line transform="translate(68,0)" x2="0" y2="5" stroke="#888" stroke-width="1" opacity="1"/><line transform="translate(123,0)" x2="0" y2="5" stroke="#888" stroke-width="1" opacity="1"/><line transform="translate(175,0)" x2="0" y2="5" stroke="#888" stroke-width="1" opacity="1"/><line transform="translate(230,0)" x2="0" y2="5" stroke="#888" stroke-width="1" opacity="1"/><line transform="translate(282,0)" x2="0" y2="5" stroke="#888" stroke-width="1" opacity="1"/><line transform="translate(337,0)" x2="0" y2="5" stroke="#888" stroke-width="1" opacity="1"/><line transform="translate(391,0)" x2="0" y2="5" stroke="#888" stroke-width="1" opacity="1"/><line transform="translate(444,0)" x2="0" y2="5" stroke="#888" stroke-width="1" opacity="1"/><line transform="translate(498,0)" x2="0" y2="5" stroke="#888" stroke-width="1" opacity="1"/><line transform="translate(551,0)" x2="0" y2="5" stroke="#888" stroke-width="1" opacity="1"/></g><g class="mark-text role-axis-label" pointer-events="none"><text text-anchor="middle" transform="translate(17.543859649122805,20)" font-family="sans-serif" font-size="16px" fill="#000" opacity="1">Feb</text><text text-anchor="middle" transform="translate(68.42105263157895,20)" font-family="sans-serif" font-size="16px" fill="#000" opacity="1">Mar</text><text text-anchor="middle" transform="translate(122.73391812865498,20)" font-family="sans-serif" font-size="16px" fill="#000" opacity="1">Apr</text><text text-anchor="middle" transform="translate(175.3654970760234,20)" font-family="sans-serif" font-size="16px" fill="#000" opacity="1">May</text><text text-anchor="middle" transform="translate(229.7514619883041,20)" font-family="sans-serif" font-size="16px" fill="#000" opacity="1">Jun</text><text text-anchor="middle" transform="translate(282.3830409356725,20)" font-family="sans-serif" font-size="16px" fill="#000" opacity="1">Jul</text><text text-anchor="middle" transform="translate(336.76900584795317,20)" font-family="sans-serif" font-size="16px" fill="#000" opacity="1">Aug</text><text text-anchor="middle" transform="translate(391.15497076023394,20)" font-family="sans-serif" font-size="16px" fill="#000" opacity="1">Sep</text><text text-anchor="middle" transform="translate(443.7865497076024,20)" font-family="sans-serif" font-size="16px" fill="#000" opacity="1">Oct</text><text text-anchor="middle" transform="translate(498.17251461988303,20)" font-family="sans-serif" font-size="16px" fill="#000" opacity="1">Nov</text><text text-anchor="middle" transform="translate(550.8771929824561,20)" font-family="sans-serif" font-size="16px" fill="#000" opacity="1">Dec</text></g><g class="mark-rule role-axis-domain" pointer-events="none"><line transform="translate(0,0)" x2="600" y2="0" stroke="#888" stroke-width="1" opacity="1"/></g><g class="mark-text role-axis-title" pointer-events="none"><text text-anchor="middle" transform="translate(300,41)" font-family="sans-serif" font-size="18px" font-weight="bold" fill="#000" opacity="1">Date</text></g></g><path class="foreground" aria-hidden="true" d="" pointer-events="none" display="none"/></g></g><g class="mark-group role-axis" role="graphics-symbol" aria-roledescription="axis" aria-label="Y-axis titled 'Confirmed Cases (per 100k People)' for a linear scale with values from 0 to 6,500"><g transform="translate(0.5,0.5)"><path class="background" aria-hidden="true" d="M0,0h0v0h0Z" pointer-events="none"/><g><g class="mark-rule role-axis-tick" pointer-events="none"><line transform="translate(0,371)" x2="-5" y2="0" stroke="#888" stroke-width="1" opacity="1"/><line transform="translate(0,342)" x2="-5" y2="0" stroke="#888" stroke-width="1" opacity="1"/><line transform="translate(0,314)" x2="-5" y2="0" stroke="#888" stroke-width="1" opacity="1"/><line transform="translate(0,285)" x2="-5" y2="0" stroke="#888" stroke-width="1" opacity="1"/><line transform="translate(0,257)" x2="-5" y2="0" stroke="#888" stroke-width="1" opacity="1"/><line transform="translate(0,228)" x2="-5" y2="0" stroke="#888" stroke-width="1" opacity="1"/><line transform="translate(0,200)" x2="-5" y2="0" stroke="#888" stroke-width="1" opacity="1"/><line transform="translate(0,171)" x2="-5" y2="0" stroke="#888" stroke-width="1" opacity="1"/><line transform="translate(0,143)" x2="-5" y2="0" stroke="#888" stroke-width="1" opacity="1"/><line transform="translate(0,114)" x2="-5" y2="0" stroke="#888" stroke-width="1" opacity="1"/><line transform="translate(0,86)" x2="-5" y2="0" stroke="#888" stroke-width="1" opacity="1"/><line transform="translate(0,57)" x2="-5" y2="0" stroke="#888" stroke-width="1" opacity="1"/><line transform="translate(0,29)" x2="-5" y2="0" stroke="#888" stroke-width="1" opacity="1"/><line transform="translate(0,0)" x2="-5" y2="0" stroke="#888" stroke-width="1" opacity="1"/></g><g class="mark-text role-axis-label" pointer-events="none"><text text-anchor="end" transform="translate(-7,375.82818294190355)" font-family="sans-serif" font-size="16px" fill="#000" opacity="1">0</text><text text-anchor="end" transform="translate(-7,347.3029381002187)" font-family="sans-serif" font-size="16px" fill="#000" opacity="1">500</text><text text-anchor="end" transform="translate(-7,318.77769325853376)" font-family="sans-serif" font-size="16px" fill="#000" opacity="1">1,000</text><text text-anchor="end" transform="translate(-7,290.25244841684884)" font-family="sans-serif" font-size="16px" fill="#000" opacity="1">1,500</text><text text-anchor="end" transform="translate(-7,261.72720357516397)" font-family="sans-serif" font-size="16px" fill="#000" opacity="1">2,000</text><text text-anchor="end" transform="translate(-7,233.20195873347913)" font-family="sans-serif" font-size="16px" fill="#000" opacity="1">2,500</text><text text-anchor="end" transform="translate(-7,204.6767138917942)" font-family="sans-serif" font-size="16px" fill="#000" opacity="1">3,000</text><text text-anchor="end" transform="translate(-7,176.15146905010934)" font-family="sans-serif" font-size="16px" fill="#000" opacity="1">3,500</text><text text-anchor="end" transform="translate(-7,147.62622420842442)" font-family="sans-serif" font-size="16px" fill="#000" opacity="1">4,000</text><text text-anchor="end" transform="translate(-7,119.10097936673957)" font-family="sans-serif" font-size="16px" fill="#000" opacity="1">4,500</text><text text-anchor="end" transform="translate(-7,90.57573452505466)" font-family="sans-serif" font-size="16px" fill="#000" opacity="1">5,000</text><text text-anchor="end" transform="translate(-7,62.05048968336978)" font-family="sans-serif" font-size="16px" fill="#000" opacity="1">5,500</text><text text-anchor="end" transform="translate(-7,33.52524484168487)" font-family="sans-serif" font-size="16px" fill="#000" opacity="1">6,000</text><text text-anchor="end" transform="translate(-7,5)" font-family="sans-serif" font-size="16px" fill="#000" opacity="1">6,500</text></g><g class="mark-rule role-axis-domain" pointer-events="none"><line transform="translate(0,370.82818294190355)" x2="0" y2="-370.82818294190355" stroke="#888" stroke-width="1" opacity="1"/></g><g class="mark-text role-axis-title" pointer-events="none"><text text-anchor="middle" transform="translate(-76.81666564941406,185.41409147095177) rotate(-90) translate(0,-4)" font-family="sans-serif" font-size="18px" font-weight="bold" fill="#000" opacity="1"><tspan>Confirmed Cases</tspan><tspan x="0" dy="20">(per 100k People)</tspan></text></g></g><path class="foreground" aria-hidden="true" d="" pointer-events="none" display="none"/></g></g><g class="mark-group role-scope pathgroup" role="graphics-object" aria-roledescription="group mark container"><g transform="translate(0,0)"><path class="background" aria-hidden="true" d="M0,0h600v370.82818294190355h-600Z"/><g><g class="mark-line role-mark marks" role="graphics-object" aria-roledescription="line mark container"><path aria-label="Date: Jan 22, 2020; Confirmed Cases, (per 100k People): 0; State, County: Delaware, Kent" role="graphics-symbol" aria-roledescription="line mark" d="M0,370.82818294190355L1.7543859649122806,370.82818294190355L3.508771929824561,370.82818294190355L5.263157894736842,370.82818294190355L7.017543859649122,370.82818294190355L8.771929824561402,370.82818294190355L10.526315789473683,370.82818294190355L12.280701754385964,370.82818294190355L14.035087719298245,370.82818294190355L15.789473684210526,370.82818294190355L17.543859649122805,370.82818294190355L19.298245614035086,370.82818294190355L21.052631578947366,370.82818294190355L22.807017543859647,370.82818294190355L24.561403508771928,370.82818294190355L26.31578947368421,370.82818294190355L28.07017543859649,370.82818294190355L29.82456140350877,370.82818294190355L31.57894736842105,370.82818294190355L33.33333333333333,370.82818294190355L35.08771929824561,370.82818294190355L36.84210526315789,370.82818294190355L38.59649122807017,370.82818294190355L40.35087719298245,370.82818294190355L42.10526315789473,370.82818294190355L43.859649122807014,370.82818294190355L45.614035087719294,370.82818294190355L47.368421052631575,370.82818294190355L49.122807017543856,370.82818294190355L50.87719298245614,370.82818294190355L52.63157894736842,370.82818294190355L54.3859649122807,370.82818294190355L56.14035087719298,370.82818294190355L57.89473684210526,370.82818294190355L59.64912280701754,370.82818294190355L61.40350877192982,370.82818294190355L63.1578947368421,370.82818294190355L64.91228070175438,370.82818294190355L66.66666666666666,370.82818294190355L68.42105263157895,370.82818294190355L70.17543859649122,370.82818294190355L71.9298245614035,370.82818294190355L73.68421052631578,370.82818294190355L75.43859649122807,370.82818294190355L77.19298245614034,370.82818294190355L78.94736842105263,370.82818294190355L80.7017543859649,370.82818294190355L82.38304093567251,370.82818294190355L84.13742690058479,370.82818294190355L85.89181286549707,370.82818294190355L87.64619883040935,370.82818294190355L89.40058479532163,370.82818294190355L91.15497076023391,370.82818294190355L92.9093567251462,370.82818294190355L94.66374269005847,370.82818294190355L96.41812865497076,370.82818294190355L98.17251461988303,370.7966260239545L99.92690058479532,370.70195527010736L101.6812865497076,370.67039835215826L103.43567251461988,370.67039835215826L105.19005847953215,370.67039835215826L106.94444444444444,370.6388414342092L108.69883040935672,370.5126137624131L110.453216374269,370.38638609061684L112.20760233918128,370.2917153367697L113.96198830409358,370.16548766497345L115.71637426900585,370.0392599931773L117.47076023391814,370.0392599931773L119.22514619883042,369.9761461572792L120.9795321637427,369.75524773163585L122.73391812865498,369.5343493059925L124.48830409356727,369.47123547009437L126.24269005847954,369.12410937265486L127.99707602339183,368.68231252136815L129.7514619883041,368.11428799828525L131.50584795321637,366.7888974444251L133.26023391812865,366.1893160033932L135.01461988304095,364.4852424341445L136.76900584795322,364.0750025008068L138.5233918128655,363.570091813622L140.27777777777777,362.7811688648958L142.03216374269007,361.96068899822046L143.78654970760235,361.73979057257714L145.54093567251462,360.44595693666605L147.2953216374269,359.94104624948125L149.0497076023392,359.7201478238379L150.80409356725144,358.7103264494683L152.55847953216374,357.66894815714966L154.31286549707602,357.66894815714966L156.06725146198832,357.258708223812L157.82163742690057,356.3435576032895L159.57602339181287,354.9550532135313L161.33040935672514,353.81900416736556L163.08479532163744,353.21942272633356L164.8391812865497,352.5567274494035L166.593567251462,351.1051092237472L168.34795321637426,350.25307243912283L170.10233918128657,347.85474667499506L171.8567251461988,347.3813929057593L173.61111111111111,346.8764822185745L175.3654970760234,346.4346853672878L177.1198830409357,345.8035470083068L178.87426900584794,344.9199533057334L180.62865497076024,344.5412702903448L182.3830409356725,344.0994734390581L184.1374269005848,342.7109690492999L185.89181286549706,341.0068954800512L187.64619883040936,340.4388709569683L189.40058479532163,339.7446187620892L191.1549707602339,339.7446187620892L192.90935672514618,337.8827606030952L194.66374269005848,337.3778499159104L196.41812865497076,336.62048388513324L198.17251461988303,335.6422194287127L199.9269005847953,334.6639549722921L201.6812865497076,333.7172474338206L203.43567251461988,333.05455215689057L205.19005847953215,332.3602999620114L206.94444444444443,331.7607185209795L208.69883040935673,331.2873647517437L210.453216374269,330.4037710491703L212.20760233918128,329.93041727993455L213.96198830409355,329.93041727993455L215.71637426900585,328.5419128901764L217.47076023391813,328.0370022029916L219.2251461988304,327.65831918760296L220.97953216374268,327.4689776799087L222.73391812865498,326.9009531568258L224.48830409356725,326.6169408952843L226.24269005847952,325.63867643886374L227.9970760233918,325.51244876706755L229.7514619883041,325.38622109527137L231.50584795321635,325.07065191578084L233.26023391812865,325.0390949978318L235.01461988304092,324.94442424398466L236.76900584795322,324.5972981465451L238.52339181286547,323.6190336901245L240.27777777777777,323.14567992088877L242.03216374269005,323.08256608499073L243.78654970760235,322.79855382344925L245.5409356725146,322.5460984798568L247.2953216374269,322.1358585465192L249.04970760233917,322.10430162857017L250.80409356725147,321.78873244907965L252.55847953216372,321.69406169523245L254.31286549707602,321.4416063516401L256.0672514619883,321.1891510080477L257.82163742690057,320.99980950035336L259.57602339181284,320.84202491060813L261.33040935672517,320.27400038752523L263.08479532163744,320.14777271572905L264.8391812865497,319.92687429008566L266.593567251462,319.70597586444234L268.34795321637426,319.57974819264615L270.10233918128654,319.4535205208499L271.8567251461988,319.39040668495187L273.61111111111114,319.2326220952066L275.3654970760234,318.69615449007273L277.1198830409357,318.34902839263316L278.87426900584796,318.0650161310917L280.62865497076024,317.49699160800884L282.3830409356725,317.21297934646736L284.1374269005848,316.6765117413335L285.89181286549706,316.2347148900468L287.6461988304094,316.07693030030157L289.40058479532166,315.729804202862L291.15497076023394,315.2564504336263L292.9093567251462,314.5306413207981L294.6637426900585,314.34129981310383L296.41812865497076,314.18351522335854L298.17251461988303,313.55237686437755L299.9269005847953,313.1105800130909L301.6812865497076,312.5109985720589L303.4356725146199,312.2269863105175L305.1900584795322,311.97453096692504L306.94444444444446,311.62740486948553L308.69883040935673,311.28027877204596L310.45321637426906,308.40859923868237L312.2076023391813,307.8721316335485L313.96198830409355,307.7143470438033L315.7163742690058,307.3041071104656L317.47076023391816,307.17787943866944L319.22514619883043,306.925424095077L320.9795321637427,305.8840458027584L322.733918128655,304.4955414130001L324.4883040935673,304.84266751043975L326.2426900584795,304.0221876437644L327.9970760233918,303.769732300172L329.7514619883041,303.5488338745286L331.5058479532164,303.23326469503814L333.2602339181287,302.9492524334967L335.01461988304095,302.4443417463119L336.76900584795317,301.9394310591271L338.5233918128655,301.4345203719423L340.27777777777777,300.9296096847575L342.03216374269005,300.58248358731794L343.7865497076023,300.2038005719293L345.54093567251465,299.9197883103879L347.2953216374269,299.25709303345786L349.0497076023392,298.9730807719164L350.8040935672514,298.65751159242586L352.55847953216374,298.43661316678254L354.312865497076,298.0579301513939L356.0672514619883,297.6476902180563L357.82163742690057,295.0284660282851L359.5760233918129,293.1034940333931L361.33040935672517,292.72481101800446L363.08479532163744,292.40924183851394L364.83918128654966,292.0621157410744L366.593567251462,291.84121731543104L368.34795321637426,291.778103479533L370.10233918128654,291.14696512055195L371.8567251461988,291.02073744875577L373.61111111111114,290.57894059746906L375.3654970760234,290.3264852538767L377.1198830409357,290.26337141797853L378.8742690058479,290.1687006641314L380.62865497076024,290.0424729923352L382.3830409356725,289.8531314846409L384.1374269005848,289.4744484692523L385.89181286549706,288.4015132589846L387.6461988304094,288.5277409307808L389.40058479532166,288.022830243596L391.15497076023394,287.54947647436023L392.90935672514615,287.54947647436023L394.6637426900585,287.04456578717543L396.41812865497076,286.3187566743473L398.17251461988303,285.6560613974172L399.9269005847953,285.2458214640796L401.68128654970764,284.9933661204872L403.4356725146199,284.77246769484384L405.1900584795322,284.77246769484384L406.9444444444444,284.23600008971L408.69883040935673,284.14132933586285L410.453216374269,283.0368372076461L412.2076023391813,282.84749569995176L413.96198830409355,282.40569884866505L415.7163742690059,281.9954589153274L417.47076023391816,281.61677589993883L419.2251461988304,281.33276363839735L420.97953216374265,281.2380928845502L422.733918128655,280.82785295121255L424.48830409356725,280.41761301787494L426.2426900584795,280.1020438383844L427.9970760233918,279.8811454127411L429.75146198830413,279.3762347255563L431.5058479532164,279.21845013581105L433.2602339181286,279.1553362999129L435.0146198830409,278.9659947922186L436.7690058479532,278.5241979409319L438.5233918128655,278.1455149255433L440.27777777777777,277.7668319101547L442.03216374269005,277.325035058868L443.7865497076024,277.1356935511737L445.54093567251465,272.3390420229181L447.29532163742687,271.8341313357333L449.04970760233914,271.3607775664975L450.80409356725147,271.045208387007L452.55847953216374,270.88742379726176L454.312865497076,270.54029769982225L456.0672514619883,270.38251311007696L457.8216374269006,270.16161468443363L459.5760233918129,269.46736248955455L461.3304093567251,269.0571225562169L463.0847953216374,268.489098033134L464.8391812865497,268.1419719356944L466.593567251462,267.9841873459492L468.34795321637426,267.5739474126115L470.10233918128654,267.16370747927385L471.85672514619887,266.18544302285335L473.61111111111114,265.71208925361753L475.36549707602336,265.2702924023309L477.11988304093563,264.6707109612989L478.87426900584796,264.6707109612989L480.62865497076024,264.2920279459103L482.3830409356725,263.7240034228274L484.1374269005848,263.31376348948976L485.8918128654971,262.84040972025394L487.6461988304094,262.0514867715277L489.4005847953216,261.578133002292L491.1549707602339,260.97855156126L492.9093567251462,260.22118553048284L494.6637426900585,258.9589088125208L496.41812865497076,258.20154278174357L498.17251461988303,257.0339368176287L500,256.8130383919854L501.7543859649123,256.3081277048006L503.50877192982455,256.08722927915727L505.2631578947368,254.66716797144997L507.01754385964915,253.5311189252842L508.7719298245614,252.77375289450697L510.5263157894737,251.60614693039213L512.280701754386,250.53321172012446L514.0350877192983,249.99674411499055L515.7894736842105,248.57668280728333L517.5438596491229,247.724646022659L519.2982456140351,245.98901553546122L521.0526315789474,243.74847436107862L522.8070175438596,243.2120067559448L524.561403508772,241.444819350798L526.3157894736842,240.182542632836L528.0701754385965,239.1727212584664L529.8245614035088,237.50020460716672L531.578947368421,234.3760697302108L533.3333333333333,232.76666691480918L535.0877192982456,230.74702416607L536.8421052631579,228.88516600707607L538.5964912280701,226.86552325833685L540.3508771929825,225.2561204429353L542.1052631578948,222.7315670070113L543.859649122807,219.41809062236098L545.6140350877192,216.23084190950695L547.3684210526316,213.8325161453791L549.1228070175439,209.7932306479007L550.8771929824561,207.04777878633337L552.6315789473684,204.11298541707168L554.3859649122807,200.2630414272876L556.140350877193,192.50003961182125L557.8947368421053,188.1451849348523L559.6491228070175,183.22230573480047L561.4035087719298,176.75313755524525L563.1578947368421,172.27205520648013L564.9122807017544,167.88564361156213L566.6666666666666,164.5721672269119L568.421052631579,159.20749117557332L570.1754385964913,152.99077833961047L571.9298245614035,150.27688339599214L573.6842105263157,144.24951206772357L575.438596491228,140.68358033948095L577.1929824561404,135.98159956507243L578.9473684210526,131.02716344707156L580.7017543859649,128.59728076499468L582.4561403508771,123.76907231879005L584.2105263157895,121.21296196491701L585.9649122807018,117.5523594828272L587.719298245614,114.36511076997309L589.4736842105262,110.76762212378138L591.2280701754386,107.45414573913109L592.9824561403509,104.58246620576756L594.7368421052631,97.73461501082367L596.4912280701755,94.0424556107848L598.2456140350878,91.92814210819846L600,88.74089339534443" stroke="#4c78a8" stroke-width="3"/></g></g><path class="foreground" aria-hidden="true" d="" display="none"/></g><g transform="translate(0,0)"><path class="background" aria-hidden="true" d="M0,0h600v370.82818294190355h-600Z"/><g><g class="mark-line role-mark marks" role="graphics-object" aria-roledescription="line mark container"><path aria-label="Date: Jan 22, 2020; Confirmed Cases, (per 100k People): 0; State, County: Delaware, New Castle" role="graphics-symbol" aria-roledescription="line mark" d="M0,370.82818294190355L1.7543859649122806,370.82818294190355L3.508771929824561,370.82818294190355L5.263157894736842,370.82818294190355L7.017543859649122,370.82818294190355L8.771929824561402,370.82818294190355L10.526315789473683,370.82818294190355L12.280701754385964,370.82818294190355L14.035087719298245,370.82818294190355L15.789473684210526,370.82818294190355L17.543859649122805,370.82818294190355L19.298245614035086,370.82818294190355L21.052631578947366,370.82818294190355L22.807017543859647,370.82818294190355L24.561403508771928,370.82818294190355L26.31578947368421,370.82818294190355L28.07017543859649,370.82818294190355L29.82456140350877,370.82818294190355L31.57894736842105,370.82818294190355L33.33333333333333,370.82818294190355L35.08771929824561,370.82818294190355L36.84210526315789,370.82818294190355L38.59649122807017,370.82818294190355L40.35087719298245,370.82818294190355L42.10526315789473,370.82818294190355L43.859649122807014,370.82818294190355L45.614035087719294,370.82818294190355L47.368421052631575,370.82818294190355L49.122807017543856,370.82818294190355L50.87719298245614,370.82818294190355L52.63157894736842,370.82818294190355L54.3859649122807,370.82818294190355L56.14035087719298,370.82818294190355L57.89473684210526,370.82818294190355L59.64912280701754,370.82818294190355L61.40350877192982,370.82818294190355L63.1578947368421,370.82818294190355L64.91228070175438,370.82818294190355L66.66666666666666,370.82818294190355L68.42105263157895,370.82818294190355L70.17543859649122,370.82818294190355L71.9298245614035,370.82818294190355L73.68421052631578,370.82818294190355L75.43859649122807,370.82818294190355L77.19298245614034,370.82818294190355L78.94736842105263,370.82818294190355L80.7017543859649,370.82818294190355L82.38304093567251,370.82818294190355L84.13742690058479,370.82818294190355L85.89181286549707,370.8179726182572L87.64619883040935,370.8179726182572L89.40058479532163,370.7873416473184L91.15497076023391,370.7669210000258L92.9093567251462,370.7669210000258L94.66374269005847,370.7465003527332L96.41812865497076,370.67502808720917L98.17251461988303,370.65460743991656L99.92690058479532,370.5933454980388L101.6812865497076,370.5525042034537L103.43567251461988,370.5014525852222L105.19005847953215,370.42998031969813L106.94444444444444,370.3789287014667L108.69883040935672,370.10324996301676L110.453216374269,370.02156737384644L112.20760233918128,369.9500951083224L113.96198830409358,369.7560989590428L115.71637426900585,369.5008408678855L117.47076023391814,369.3885273077763L119.22514619883042,369.2353724530819L120.9795321637427,368.8167491835839L122.73391812865498,368.52064979784143L124.48830409356727,368.32665364856183L126.24269005847954,367.9795026445879L127.99707602339183,366.7440534833865L129.7514619883041,366.3764818321199L131.50584795321637,365.76386241334234L133.26023391812865,364.99808813987045L135.01461988304095,364.33441710286144L136.76900584795322,363.67074606585237L138.5233918128655,363.16022988353774L140.27777777777777,362.58845175934533L142.03216374269007,361.843098133166L143.78654970760235,361.4448955109606L145.54093567251462,361.1590064488644L147.2953216374269,360.88332771041445L149.0497076023392,360.58722832467197L150.80409356725144,359.5968269309816L152.55847953216374,358.52474294812083L154.31286549707602,358.52474294812083L156.06725146198832,358.27969518060985L157.82163742690057,357.5241312307842L159.57602339181287,357.0238253721158L161.33040935672514,356.646043397203L163.08479532163744,355.6556420035126L164.8391812865497,355.4718561778793L166.593567251462,354.50187543148155L168.34795321637426,354.1955657220928L170.10233918128657,353.4604224195597L171.8567251461988,353.297057241219L173.61111111111111,353.12348173923203L175.3654970760234,352.1535009928342L177.1198830409357,351.79613966521396L178.87426900584794,351.3979370430086L180.62865497076024,351.0814170099735L182.3830409356725,350.6219524458903L184.1374269005848,349.5192374920907L185.89181286549706,349.08019357530014L187.64619883040936,348.52883609840035L189.40058479532163,347.5996966465877L191.1549707602339,347.5996966465877L192.90935672514618,346.42550942726405L194.66374269005848,345.9149932449494L196.41812865497076,345.343215120757L198.17251461988303,344.6897544073943L199.9269005847953,344.08734531226304L201.6812865497076,343.59724977724096L203.43567251461988,343.4440949225466L205.19005847953215,342.8723167983542L206.94444444444443,341.77981216820086L208.69883040935673,340.8813036873271L210.453216374269,339.65606484977195L212.20760233918128,338.84944928171484L213.96198830409355,338.84944928171484L215.71637426900585,337.0422219963211L217.47076023391813,335.7455108932419L219.2251461988304,335.0103675907088L220.97953216374268,334.80616111778295L222.73391812865498,334.3262759064072L224.48830409356725,333.77491842950735L226.24269005847952,332.81514800675586L227.9970760233918,332.4577866791356L229.7514619883041,331.6409607874322L231.50584795321635,331.18149622334903L233.26023391812865,330.9772897504232L235.01461988304092,330.7526626302048L236.76900584795322,330.63013874644923L238.52339181286547,330.0379399749643L240.27777777777777,329.2721657014923L242.03216374269005,329.016907610335L243.78654970760235,328.7105979009462L245.5409356725146,328.56765336989815L247.2953216374269,328.24092301321673L249.04970760233917,327.69977585996327L250.80409356725147,327.342414532343L252.55847953216372,327.0565254702468L254.31286549707602,326.4643266987618L256.0672514619883,326.0457034292638L257.82163742690057,325.6781317779973L259.57602339181284,325.1880362429753L261.33040935672517,324.65709941336803L263.08479532163744,324.17721420199223L264.8391812865497,323.38080895758145L266.593567251462,323.0234476299612L268.34795321637426,322.8702927752668L270.10233918128654,322.63545533140206L271.8567251461988,321.91052235251533L273.61111111111114,321.4102164938469L275.3654970760234,321.0936964608119L277.1198830409357,320.54233898391203L278.87426900584796,319.46004467740505L280.62865497076024,319.11289367343113L282.3830409356725,318.969949142383L284.1374269005848,317.90807548316855L285.89181286549706,316.94830506041706L287.6461988304094,316.3663166125784L289.40058479532166,315.71285589921564L291.15497076023394,314.783716447403L292.9093567251462,314.1098350867477L294.6637426900585,313.8239460246515L296.41812865497076,313.3849021078609L298.17251461988303,312.75186204179073L299.9269005847953,312.3026078013539L301.6812865497076,312.02692906290395L303.4356725146199,311.63893676434486L305.1900584795322,310.9956863746284L306.94444444444446,310.54643213419155L308.69883040935673,310.22991210115646L310.45321637426906,309.760237213427L312.2076023391813,309.28035200205125L313.96198830409355,308.85151840890694L315.7163742690058,308.28995060836087L317.47076023391816,307.46291439301115L319.22514619883043,307.20765630185383L320.9795321637427,306.54398526484476L322.733918128655,305.40042901646L324.4883040935673,305.33916707458224L326.2426900584795,304.66528571392695L327.9970760233918,303.84845982222356L329.7514619883041,303.56257076012736L331.5058479532164,302.6028003373758L333.2602339181287,301.97997059495196L335.01461988304095,301.459244088991L336.76900584795317,300.9589382303227L338.5233918128655,300.7036801391654L340.27777777777777,299.9889574839249L342.03216374269005,299.4171793597325L343.7865497076023,298.92708382471045L345.54093567251465,298.4165676423958L347.2953216374269,298.02857534383674L349.0497076023392,297.7120553108016L350.8040935672514,297.25259074671845L352.55847953216374,296.8748087718056L354.312865497076,296.53786809147795L356.0672514619883,296.2009274111503L357.82163742690057,295.48620475590985L359.5760233918129,294.761271777023L361.33040935672517,294.3528588311713L363.08479532163744,294.0057078271974L364.83918128654966,293.43392970300494L366.593567251462,293.0561477280922L368.34795321637426,292.60689348765527L370.10233918128654,292.1576392472184L371.8567251461988,291.830908890537L373.61111111111114,291.48375788656307L375.3654970760234,290.92219008601694L377.1198830409357,290.5239874638116L378.8742690058479,290.26872937265426L380.62865497076024,289.911368045034L382.3830409356725,289.8909473977414L384.1374269005848,289.2579073316713L385.89181286549706,288.03266849411614L387.6461988304094,287.7263587847274L389.40058479532166,287.2056322787665L391.15497076023394,286.5930128599889L392.90935672514615,286.23565153236865L394.6637426900585,285.4698772588967L396.41812865497076,284.9083094583506L398.17251461988303,283.877066770075L399.9269005847953,283.00918926014015L401.68128654970764,282.4476214595941L403.4356725146199,282.05962916103493L405.1900584795322,282.05962916103493L406.9444444444444,280.92628323629646L408.69883040935673,280.1605089628245L410.453216374269,279.0475836853786L412.2076023391813,277.99592034981043L413.96198830409355,277.44456287291064L415.7163742690059,276.26016532994066L417.47076023391816,275.3514465254206L419.2251461988304,274.667354841119L420.97953216374265,274.03431477504887L422.733918128655,273.61569150555084L424.48830409356725,272.91117917395667L426.2426900584795,272.16582554777733L427.9970760233918,271.4715235398294L429.75146198830413,271.00184865209997L431.5058479532164,270.1033401712262L433.2602339181286,268.980204570134L435.0146198830409,268.4288470932342L436.7690058479532,267.6426521724697L438.5233918128655,266.7033023970107L440.27777777777777,265.5699564722723L442.03216374269005,264.967547377141L443.7865497076024,263.4155781829045L445.54093567251465,260.42395335454074L447.29532163742687,259.1680835460468L449.04970760233914,258.46357121445254L450.80409356725147,257.62632467545654L452.55847953216374,256.8911813729235L454.312865497076,256.3091929250848L456.0672514619883,255.48215670973505L457.8216374269006,254.44070369781323L459.5760233918129,253.33798874401356L461.3304093567251,252.45990091043245L463.0847953216374,251.48992016403466L464.8391812865497,250.88751106890334L466.593567251462,250.47909812305164L468.34795321637426,249.8256374096889L470.10233918128654,248.7331327795356L471.85672514619887,247.70189009126003L473.61111111111114,246.7421196685085L475.36549707602336,246.2622344571328L477.11988304093563,245.47603953636823L478.87426900584796,245.12888853239428L480.62865497076024,244.20995940422793L482.3830409356725,243.29103027606158L484.1374269005848,242.3925217951878L485.8918128654971,241.7084301108862L487.6461988304094,240.3810880368682L489.4005847953216,239.99309573830905L491.1549707602339,239.16605952295933L492.9093567251462,238.2062891002078L494.6637426900585,237.2873599720415L496.41812865497076,236.13359340001043L498.17251461988303,235.4495017157088L500,234.07110802345935L501.7543859649123,233.4891195756206L503.50877192982455,232.9173414514282L505.2631578947368,231.5695787301176L507.01754385964915,229.74193079743122L508.7719298245614,228.25122354507246L510.5263157894737,225.80074586996224L512.280701754386,223.65657790424075L514.0350877192983,222.31902550657642L515.7894736842105,220.99168343255837L517.5438596491229,219.71539297677177L519.2982456140351,216.51956167548218L521.0526315789474,214.19160788412745L522.8070175438596,211.25103467399518L524.561403508772,208.83118796982376L526.3157894736842,206.20713479272655L528.0701754385965,205.01252692611033L529.8245614035088,202.45994601453717L531.578947368421,198.27371331955712L533.3333333333333,194.5775761595992L535.0877192982456,191.2592209745541L536.8421052631579,188.88021556496787L538.5964912280701,185.80690814743377L540.3508771929825,183.37685111961613L542.1052631578948,179.8032378434137L543.859649122807,175.93352518146875L545.6140350877192,172.65601129100875L547.3684210526316,168.78629862906385L549.1228070175439,166.58086872146464L550.8771929824561,161.50633786925715L552.6315789473684,159.4744834636449L554.3859649122807,154.25700808038937L556.140350877193,148.72301266409875L557.8947368421053,144.11815669962073L559.6491228070175,139.00278455282807L561.4035087719298,134.87781379972586L563.1578947368421,130.10959265690718L564.9122807017544,123.22783451930589L566.6666666666666,118.58213726024267L568.421052631579,114.47758715443307L570.1754385964913,107.6979322532947L571.9298245614035,104.45104933377367L573.6842105263157,98.69242679726456L575.438596491228,94.17946374560321L577.1929824561404,89.00282965693283L578.9473684210526,84.17334657223638L580.7017543859649,82.53969478882958L582.4561403508771,76.06634959708002L584.2105263157895,73.44229641998275L585.9649122807018,71.66570010552779L587.719298245614,68.12271780026424L589.4736842105262,63.92627478163794L591.2280701754386,59.147843315173006L592.9824561403509,54.675721558096804L594.7368421052631,50.530330157701925L596.4912280701755,47.1915543253642L598.2456140350878,44.47560823545039L600,39.74822838721687" stroke="#f58518" stroke-width="3"/></g></g><path class="foreground" aria-hidden="true" d="" display="none"/></g><g transform="translate(0,0)"><path class="background" aria-hidden="true" d="M0,0h600v370.82818294190355h-600Z"/><g><g class="mark-line role-mark marks" role="graphics-object" aria-roledescription="line mark container"><path aria-label="Date: Jan 22, 2020; Confirmed Cases, (per 100k People): 0; State, County: Delaware, Sussex" role="graphics-symbol" aria-roledescription="line mark" d="M0,370.82818294190355L1.7543859649122806,370.82818294190355L3.508771929824561,370.82818294190355L5.263157894736842,370.82818294190355L7.017543859649122,370.82818294190355L8.771929824561402,370.82818294190355L10.526315789473683,370.82818294190355L12.280701754385964,370.82818294190355L14.035087719298245,370.82818294190355L15.789473684210526,370.82818294190355L17.543859649122805,370.82818294190355L19.298245614035086,370.82818294190355L21.052631578947366,370.82818294190355L22.807017543859647,370.82818294190355L24.561403508771928,370.82818294190355L26.31578947368421,370.82818294190355L28.07017543859649,370.82818294190355L29.82456140350877,370.82818294190355L31.57894736842105,370.82818294190355L33.33333333333333,370.82818294190355L35.08771929824561,370.82818294190355L36.84210526315789,370.82818294190355L38.59649122807017,370.82818294190355L40.35087719298245,370.82818294190355L42.10526315789473,370.82818294190355L43.859649122807014,370.82818294190355L45.614035087719294,370.82818294190355L47.368421052631575,370.82818294190355L49.122807017543856,370.82818294190355L50.87719298245614,370.82818294190355L52.63157894736842,370.82818294190355L54.3859649122807,370.82818294190355L56.14035087719298,370.82818294190355L57.89473684210526,370.82818294190355L59.64912280701754,370.82818294190355L61.40350877192982,370.82818294190355L63.1578947368421,370.82818294190355L64.91228070175438,370.82818294190355L66.66666666666666,370.82818294190355L68.42105263157895,370.82818294190355L70.17543859649122,370.82818294190355L71.9298245614035,370.82818294190355L73.68421052631578,370.82818294190355L75.43859649122807,370.82818294190355L77.19298245614034,370.82818294190355L78.94736842105263,370.82818294190355L80.7017543859649,370.82818294190355L82.38304093567251,370.82818294190355L84.13742690058479,370.82818294190355L85.89181286549707,370.82818294190355L87.64619883040935,370.82818294190355L89.40058479532163,370.82818294190355L91.15497076023391,370.82818294190355L92.9093567251462,370.82818294190355L94.66374269005847,370.82818294190355L96.41812865497076,370.80382581107494L98.17251461988303,370.80382581107494L99.92690058479532,370.7551115494176L101.6812865497076,370.6576830261031L103.43567251461988,370.6333258952745L105.19005847953215,370.53589737195995L106.94444444444444,370.38975458698815L108.69883040935672,370.26796893284495L110.453216374269,370.1948975403591L112.20760233918128,370.1705404095304L113.96198830409358,369.9269691012441L115.71637426900585,369.3911122230141L117.47076023391814,369.2206123072136L119.22514619883042,368.85525534478415L120.9795321637427,368.6847554289837L122.73391812865498,368.36811272821143L124.48830409356727,368.2706842048969L126.24269005847954,367.9783986349533L127.99707602339183,367.7835415883242L129.7514619883041,367.1502561867797L131.50584795321637,366.95539914015063L133.26023391812865,365.71318546789024L135.01461988304095,364.03254344071445L136.76900584795322,363.6671864782849L138.5233918128655,362.64418698348226L140.27777777777777,360.9879020871351L142.03216374269007,359.526474237417L143.78654970760235,357.4074038553258L145.54093567251462,355.2639763424059L147.2953216374269,354.31404824008916L149.0497076023392,353.8269056235165L150.80409356725144,351.0745498398808L152.55847953216374,349.2477650277331L154.31286549707602,349.2477650277331L156.06725146198832,345.1314099176939L157.82163742690057,343.08541092808855L159.57602339181287,338.74984164059157L161.33040935672514,337.28841379087345L163.08479532163744,336.8743425667867L164.8391812865497,334.5360580072377L166.593567251462,326.96099031953236L168.34795321637426,325.2803482923565L170.10233918128657,319.33720837016966L171.8567251461988,317.99756617459474L173.61111111111111,316.85278102564894L175.3654970760234,315.0016390826727L177.1198830409357,313.36971131715416L178.87426900584794,310.8852839726334L180.62865497076024,310.00842726280257L182.3830409356725,309.4482132537439L184.1374269005848,303.50507333155707L185.89181286549706,301.8000741735526L187.64619883040936,299.3156468290319L189.40058479532163,298.0003617642856L191.1549707602339,298.0003617642856L192.90935672514618,295.5402915505935L194.66374269005848,292.7635786361291L196.41812865497076,289.57279449757795L198.17251461988303,285.50515364919596L199.9269005847953,283.99501153782063L201.6812865497076,281.7297983707576L203.43567251461988,279.7568707736381L205.19005847953215,276.78530081254473L206.94444444444443,275.73794418691347L208.69883040935673,274.3739448605099L210.453216374269,273.2535168423927L212.20760233918128,272.23051734759L213.96198830409355,272.23051734759L215.71637426900585,270.8908751520151L217.47076023391813,270.52551818958557L219.2251461988304,270.1845183579847L220.97953216374268,269.98966131135563L222.73391812865498,269.72173287224064L224.48830409356725,269.6243043489261L226.24269005847952,268.16287649920804L227.9970760233918,267.2373055277199L229.7514619883041,266.77452004197585L231.50584795321635,266.11687750960266L233.26023391812865,265.9707347246309L235.01461988304092,265.7515205471732L236.76900584795322,265.55666350054406L238.52339181286547,265.0695208839714L240.27777777777777,264.97209236065686L242.03216374269005,264.80159244485645L243.78654970760235,264.60673539822733L245.5409356725146,264.3144498282837L247.2953216374269,264.1683070433119L249.04970760233917,263.9247357350256L250.80409356725147,263.63245016508193L252.55847953216372,263.5106645109388L254.31286549707602,263.2670932026524L256.0672514619883,262.9748076327088L257.82163742690057,262.9504505018802L259.57602339181284,262.90173624022293L261.33040935672517,261.95180813790614L263.08479532163744,261.5377369138194L264.8391812865497,261.3428798671903L266.593567251462,261.1967370822185L268.34795321637426,261.0018800355894L270.10233918128654,260.68523733481715L271.8567251461988,260.295523241559L273.61111111111114,260.7583087273031L275.3654970760234,260.1980947182444L277.1198830409357,258.59052408355456L278.87426900584796,257.88416728952416L280.62865497076024,256.81245353306423L282.3830409356725,256.5932393556065L284.1374269005848,254.42545471185798L285.89181286549706,252.76916981551088L287.6461988304094,252.59866989971042L289.40058479532166,251.40517048910732L291.15497076023394,250.2116710785042L292.9093567251462,249.60274280778833L294.6637426900585,249.33481436867336L296.41812865497076,248.84767175210064L298.17251461988303,247.94645791144117L299.9269005847953,247.19138685575348L301.6812865497076,246.77731563166668L303.4356725146199,246.1440302301222L305.1900584795322,245.87610179100722L306.94444444444446,245.31588778194862L308.69883040935673,244.87745942703316L310.45321637426906,243.09938887654286L312.2076023391813,242.6122462599701L313.96198830409355,241.63796102682474L315.7163742690058,240.93160423279434L317.47076023391816,240.15217604627804L319.22514619883043,239.90860473799168L320.9795321637427,239.12917655147535L322.733918128655,236.66910633778326L324.4883040935673,237.15624895435596L326.2426900584795,236.71782059944056L327.9970760233918,236.15760659038193L329.7514619883041,235.30510701137973L331.5058479532164,235.03717857226474L333.2602339181287,234.84232152563564L335.01461988304095,234.23339325491978L336.76900584795317,233.69753637668984L338.5233918128655,233.06425097514528L340.27777777777777,232.65017975105852L342.03216374269005,232.35789418111491L343.7865497076023,230.09268101405192L345.54093567251465,229.8978239674228L347.2953216374269,229.48375274333603L349.0497076023392,229.0453243884206L350.8040935672514,228.60689603350517L352.55847953216374,228.38768185604746L354.312865497076,227.9248963703034L356.0672514619883,227.58389653870248L357.82163742690057,226.4391113897567L359.5760233918129,220.61775712171297L361.33040935672517,220.49597146756975L363.08479532163744,220.27675729011204L364.83918128654966,219.88704319685394L366.593567251462,219.5947576269103L368.34795321637426,219.49732910359577L370.10233918128654,219.30247205696668L371.8567251461988,218.9614722253658L373.61111111111114,218.79097230956535L375.3654970760234,218.71790091707945L377.1198830409357,218.6204723937649L378.8742690058479,218.86404370205122L380.62865497076024,219.20504353365214L382.3830409356725,219.61911475773894L384.1374269005848,218.91275796370851L385.89181286549706,216.1604021800728L387.6461988304094,216.96418749741775L389.40058479532166,216.6475447966455L391.15497076023394,215.98990226427233L392.90935672514615,216.52575914250235L394.6637426900585,216.25783070338733L396.41812865497076,215.79504521764326L398.17251461988303,215.57583104018556L399.9269005847953,215.0399741619556L401.68128654970764,214.45540302206837L403.4356725146199,214.16311745212474L405.1900584795322,214.16311745212474L406.9444444444444,213.5785463122375L408.69883040935673,213.213189349808L410.453216374269,212.7260467332353L412.2076023391813,212.40940403246304L413.96198830409355,212.0440470700335L415.7163742690059,210.87490479025905L417.47076023391816,210.6069763511441L419.2251461988304,210.43647643534365L420.97953216374265,210.80183339777315L422.733918128655,210.07111947291412L424.48830409356725,209.31604841722643L426.2426900584795,208.877620062311L427.9970760233918,208.4635488382242L429.75146198830413,208.29304892242376L431.5058479532164,207.85462056750833L433.2602339181286,207.19697803513517L435.0146198830409,206.97776385767747L436.7690058479532,206.66112115690524L438.5233918128655,206.1496214095039L440.27777777777777,205.63812166210258L442.03216374269005,205.41890748464488L443.7865497076024,205.0291933913867L445.54093567251465,202.44733752355145L447.29532163742687,201.25383811294827L449.04970760233914,200.4256956647747L450.80409356725147,199.74369600157297L452.55847953216374,199.11041060002847L454.312865497076,198.7206965067703L456.0672514619883,197.6002684886531L457.8216374269006,196.72341177882225L459.5760233918129,195.74912654567683L461.3304093567251,194.9453412283319L463.0847953216374,193.82491321021473L464.8391812865497,192.97241363121253L466.593567251462,192.339128229668L468.34795321637426,191.90069987475255L470.10233918128654,190.82898611829265L471.85672514619887,188.73427286703003L473.61111111111114,187.7112733722274L475.36549707602336,186.68827387742476L477.11988304093563,185.88448856007983L478.87426900584796,185.49477446682167L480.62865497076024,184.2525607945613L482.3830409356725,183.01034712230086L484.1374269005848,181.5732764034114L485.8918128654971,180.79384821689513L487.6461988304094,179.5272774138061L489.4005847953216,178.84527775060434L491.1549707602339,177.79792112497302L492.9093567251462,176.75056449934175L494.6637426900585,175.0942796029946L496.41812865497076,173.55978036079057L498.17251461988303,171.8304240719575L500,170.7830674463262L501.7543859649123,169.76006795152358L503.50877192982455,168.68835419506362L505.2631578947368,167.64099756943233L507.01754385964915,166.0334269347425L508.7719298245614,164.74249900082478L510.5263157894737,163.1105712353063L512.280701754386,161.62478625475956L514.0350877192983,160.26078692835603L515.7894736842105,158.92114473278104L517.5438596491229,157.65457392969208L519.2982456140351,155.17014658517135L521.0526315789474,153.27029038053783L522.8070175438596,150.76150590518847L524.561403508772,148.22836429901045L526.3157894736842,146.8887221034355L528.0701754385965,145.5977941695179L529.8245614035088,143.3082238716262L531.578947368421,139.60593998567376L533.3333333333333,137.3650839494393L535.0877192982456,135.0024422590618L536.8421052631579,132.29880073708333L538.5964912280701,130.2771588783066L540.3508771929825,129.25415938350395L542.1052631578948,125.5762326283801L543.859649122807,122.99437676054484L545.6140350877192,121.09452055591127L547.3684210526316,118.0742363331606L549.1228070175439,116.63716561427115L550.8771929824561,113.66559565317769L552.6315789473684,112.15545354180233L554.3859649122807,109.08645505739436L556.140350877193,105.35981404061323L557.8947368421053,102.72924391112072L559.6491228070175,98.88081724019638L561.4035087719298,94.25296238275575L563.1578947368421,90.74553554343238L564.9122807017544,87.84703697482486L566.6666666666666,85.80103798521951L568.421052631579,80.68604051120627L570.1754385964913,75.91204286879386L571.9298245614035,71.57647358129682L573.6842105263157,65.73076218242451L575.438596491228,62.68612082884513L577.1929824561404,59.54405095195124L578.9473684210526,54.77005330953883L580.7017543859649,52.26126883418948L582.4561403508771,46.439914566145745L584.2105263157895,42.98120198847962L585.9649122807018,39.30327523335578L587.719298245614,36.47784805723414L589.4736842105262,34.33442054431429L591.2280701754386,29.316851593615507L592.9824561403509,26.68628146412295L594.7368421052631,21.9122838217105L596.4912280701755,18.672785421502073L598.2456140350878,16.31014373112456L600,13.046288200087506" stroke="#e45756" stroke-width="3"/></g></g><path class="foreground" aria-hidden="true" d="" display="none"/></g></g><g class="mark-group role-legend" role="graphics-symbol" aria-roledescription="legend" aria-label="Symbol legend titled 'State, County' for stroke color with 3 values: Delaware, Kent, Delaware, New Castle, Delaware, Sussex"><g transform="translate(0,434)"><path class="background" aria-hidden="true" d="M0,0h172v67h-172Z" pointer-events="none"/><g><g class="mark-group role-legend-entry"><g transform="translate(0,21)"><path class="background" aria-hidden="true" d="M0,0h0v0h0Z" pointer-events="none"/><g><g class="mark-group role-scope" role="graphics-object" aria-roledescription="group mark container"><g transform="translate(0,0)"><path class="background" aria-hidden="true" d="M0,0h171.5v14h-171.5Z" pointer-events="none" opacity="1"/><g><g class="mark-symbol role-legend-symbol" pointer-events="none"><path transform="translate(7,7)" d="M-5,0L5,0" stroke="#4c78a8" stroke-width="3" opacity="1"/></g><g class="mark-text role-legend-label" pointer-events="none"><text text-anchor="start" transform="translate(18,11)" font-family="sans-serif" font-size="14px" fill="#000" opacity="1">Delaware, Kent</text></g></g><path class="foreground" aria-hidden="true" d="" pointer-events="none" display="none"/></g><g transform="translate(0,16)"><path class="background" aria-hidden="true" d="M0,0h171.5v14h-171.5Z" pointer-events="none" opacity="1"/><g><g class="mark-symbol role-legend-symbol" pointer-events="none"><path transform="translate(7,7)" d="M-5,0L5,0" stroke="#f58518" stroke-width="3" opacity="1"/></g><g class="mark-text role-legend-label" pointer-events="none"><text text-anchor="start" transform="translate(18,11)" font-family="sans-serif" font-size="14px" fill="#000" opacity="1">Delaware, New Castle</text></g></g><path class="foreground" aria-hidden="true" d="" pointer-events="none" display="none"/></g><g transform="translate(0,32)"><path class="background" aria-hidden="true" d="M0,0h171.5v14h-171.5Z" pointer-events="none" opacity="1"/><g><g class="mark-symbol role-legend-symbol" pointer-events="none"><path transform="translate(7,7)" d="M-5,0L5,0" stroke="#e45756" stroke-width="3" opacity="1"/></g><g class="mark-text role-legend-label" pointer-events="none"><text text-anchor="start" transform="translate(18,11)" font-family="sans-serif" font-size="14px" fill="#000" opacity="1">Delaware, Sussex</text></g></g><path class="foreground" aria-hidden="true" d="" pointer-events="none" display="none"/></g></g></g><path class="foreground" aria-hidden="true" d="" pointer-events="none" display="none"/></g></g><g class="mark-text role-legend-title" pointer-events="none"><text text-anchor="start" transform="translate(0,13)" font-family="sans-serif" font-size="16px" font-weight="bold" fill="#000" opacity="1">State, County</text></g></g><path class="foreground" aria-hidden="true" d="" pointer-events="none" display="none"/></g></g></g><path class="foreground" aria-hidden="true" d="" display="none"/></g></g></g></svg>